<!-- Generator: Adobe Illustrator 25.2.1, SVG Export Plug-In  -->
<svg version="1.1" xmlns="http://www.w3.org/2000/svg" xmlns:xlink="http://www.w3.org/1999/xlink" x="0px" y="0px"
	 width="171.227px" height="122.453px" viewBox="0 0 171.227 122.453"
	 style="overflow:visible;enable-background:new 0 0 171.227 122.453;" xml:space="preserve">
<style type="text/css">
	.st0{fill:#3FA9F5;}
	.st1{fill:#F7931E;}
	.st2{fill:#FFFFFF;}
</style>
<defs>
</defs>
<g>
	<g>
		<path d="M47.942,122.453c10.892-17.881,9.485-34.327-23.971-26.784C43.83,72.935,25.398,66.454,0,68.886
			c25.398-2.431,43.004-12.17,18.836-30.613c34.695,1.332,52.034-8.066,61.642-34.443C94.619,28.082,111.813,18.46,123.286,0
			c-11.474,18.46-9.938,34.253,23.971,26.783c-20.509,22.441-1.455,28.899,23.97,26.784c-25.426,2.115-42.415,11.766-18.834,30.614
			c-34.264-1.484-51.638,8.514-61.644,34.443C76.298,94.883,58.835,104.572,47.942,122.453z"/>
		<path class="st0" d="M52.974,114.276c9.437-15.494,8.218-29.741-20.77-23.206c17.207-19.698,1.236-25.314-20.769-23.208
			c22.005-2.106,37.26-10.544,16.32-26.524c30.062,1.154,45.084-6.989,53.41-29.843c12.252,21.013,27.149,12.677,37.09-3.318
			c-9.941,15.995-8.611,29.679,20.77,23.206c-17.771,19.443-1.262,25.039,20.768,23.206c-22.03,1.833-36.75,10.195-16.319,26.525
			c-29.687-1.286-44.741,7.378-53.411,29.843C77.543,90.388,62.411,98.783,52.974,114.276z"/>
		<g>
			<path d="M106.306,78.887c-1.253,0-2.271-0.063-2.928-0.111c-1.099-0.081-2.156-0.205-3.146-0.368
				c-0.992-0.164-1.891-0.342-2.67-0.53c-0.685-0.165-1.131-0.823-1.032-1.52c0.349-2.442,0.538-4.626,0.738-6.938
				c0.189-2.184,0.385-4.442,0.729-7.103c0.057-0.439,0.323-0.824,0.715-1.031c0.199-0.105,0.419-0.158,0.639-0.158
				c0.211,0,0.422,0.049,0.616,0.147c1.46,0.738,5.285,2.045,6.779,2.133c0.322,0.02,0.643,0.029,0.962,0.029
				c1.315,0,2.645-0.166,3.952-0.491c0.31-0.078,0.687-0.187,1.13-0.326c0.368-0.116,0.728-0.279,1.068-0.484
				c0.297-0.18,0.545-0.396,0.755-0.657c0.044-0.055,0.182-0.227,0.198-0.656c0.001-0.018,0.001-0.034,0.001-0.047
				c-0.022-0.012-0.053-0.026-0.097-0.04c-0.172-0.052-0.39-0.08-0.642-0.08c-0.403,0.005-0.759,0.031-1.104,0.079
				c-0.354,0.048-0.683,0.108-0.989,0.182l-0.842,0.203c-0.873,0.21-1.72,0.318-2.517,0.318c-0.787,0-1.546-0.104-2.255-0.31
				c-1.463-0.424-2.713-1.223-3.717-2.374c-0.964-1.102-1.694-2.518-2.169-4.208c-0.455-1.625-0.64-3.456-0.549-5.442
				c0.122-2.678,0.681-5.152,1.66-7.353c0.958-2.155,2.228-4.073,3.775-5.698c1.519-1.595,3.218-2.893,5.197-3.968
				c1.903-1.035,3.902-1.77,5.941-2.186c0.875-0.178,1.784-0.332,2.703-0.456c0.956-0.129,1.904-0.205,2.82-0.226
				c0.2-0.005,0.401-0.007,0.602-0.007c0.729,0,1.447,0.034,2.138,0.099c0.925,0.088,1.813,0.261,2.641,0.515
				c0.634,0.194,1.037,0.815,0.955,1.473c-0.554,4.467-0.842,6.937-1.424,11.979c-0.043,0.377-0.241,0.719-0.547,0.943
				c-0.236,0.174-0.52,0.265-0.809,0.265c-0.085,0-0.17-0.008-0.255-0.024c-1.086-0.206-2.245-0.332-3.444-0.374
				c-0.17-0.006-0.34-0.009-0.51-0.009c-0.988,0-1.972,0.102-2.923,0.302c-0.218,0.046-0.496,0.11-0.838,0.191
				c-0.314,0.076-0.648,0.174-0.999,0.293c-0.346,0.118-0.702,0.263-1.057,0.428c-0.312,0.146-0.594,0.312-0.836,0.496
				c-0.185,0.14-0.33,0.299-0.444,0.485c-0.071,0.117-0.103,0.233-0.103,0.378c0,0.017,0,0.032,0.001,0.046
				c0.063,0.028,0.148,0.051,0.245,0.066c0.171,0.026,0.353,0.039,0.545,0.039c0.162,0,0.332-0.009,0.508-0.026
				c0.464-0.044,0.929-0.113,1.386-0.204c0.485-0.096,0.935-0.194,1.352-0.295c0.412-0.1,0.829-0.173,1.241-0.217
				c0.549-0.059,1.072-0.088,1.556-0.088c1.033,0,1.923,0.128,2.721,0.392c1.312,0.436,2.428,1.165,3.317,2.167
				c0.869,0.983,1.516,2.23,1.924,3.709c0.39,1.414,0.554,3.031,0.486,4.805c-0.111,2.946-0.65,5.643-1.604,8.015
				c-0.949,2.355-2.235,4.444-3.823,6.208c-1.553,1.728-3.401,3.208-5.495,4.398c-2.232,1.27-4.407,2.144-6.646,2.669
				C110.327,78.701,108.447,78.887,106.306,78.887z"/>
			<path d="M122.634,30.574c0.684,0,1.354,0.031,2.009,0.093c0.835,0.08,1.626,0.233,2.371,0.461
				c-0.555,4.472-0.843,6.944-1.425,11.99c-1.157-0.219-2.374-0.353-3.651-0.397c-0.187-0.007-0.374-0.01-0.56-0.01
				c-1.084,0-2.151,0.11-3.202,0.331c-0.225,0.047-0.516,0.115-0.871,0.199c-0.357,0.086-0.731,0.195-1.122,0.328
				c-0.393,0.134-0.791,0.295-1.195,0.483c-0.404,0.188-0.765,0.403-1.084,0.646c-0.32,0.242-0.582,0.53-0.785,0.862
				c-0.203,0.333-0.302,0.697-0.302,1.089c0,0.455,0.127,0.8,0.385,1.025c0.257,0.225,0.597,0.371,1.017,0.436
				c0.237,0.036,0.489,0.055,0.755,0.055c0.204,0,0.417-0.011,0.639-0.032c0.511-0.049,1.017-0.124,1.521-0.224
				c0.503-0.099,0.971-0.202,1.405-0.308c0.434-0.105,0.799-0.158,1.066-0.186c0.478-0.051,0.951-0.08,1.411-0.08
				c0.818,0,1.596,0.093,2.29,0.323c1.085,0.36,1.994,0.952,2.725,1.777c0.73,0.825,1.274,1.881,1.628,3.165
				c0.354,1.284,0.5,2.751,0.439,4.391c-0.106,2.811-0.608,5.325-1.506,7.557c-0.9,2.232-2.088,4.156-3.571,5.805
				c-1.482,1.649-3.2,3.013-5.155,4.125c-1.955,1.112-4.037,1.999-6.284,2.527c-1.751,0.411-3.699,0.518-5.276,0.518
				c-1.304,0-2.353-0.073-2.828-0.107c-1.047-0.076-2.055-0.194-3.022-0.353c-0.967-0.16-1.825-0.331-2.573-0.511
				c0.684-4.795,0.763-8.609,1.47-14.059c1.45,0.733,5.518,2.172,7.315,2.279c0.347,0.021,0.694,0.031,1.04,0.031
				c1.443,0,2.871-0.179,4.285-0.532c0.332-0.083,0.735-0.199,1.209-0.348c0.475-0.149,0.928-0.355,1.363-0.617
				c0.435-0.263,0.806-0.585,1.116-0.971c0.309-0.385,0.475-0.87,0.498-1.456c0.016-0.397-0.075-0.713-0.273-0.946
				c-0.198-0.234-0.46-0.4-0.784-0.5c-0.308-0.094-0.656-0.141-1.045-0.141c-0.021,0-0.042,0-0.064,0
				c-0.416,0.005-0.823,0.036-1.224,0.09c-0.4,0.055-0.775,0.123-1.125,0.207c-0.351,0.084-0.631,0.152-0.84,0.203
				c-0.772,0.186-1.505,0.28-2.199,0.28c-0.66,0-1.285-0.085-1.874-0.255c-1.21-0.35-2.234-1.002-3.069-1.96
				c-0.836-0.957-1.463-2.188-1.883-3.68c-0.418-1.491-0.584-3.172-0.5-5.011c0.115-2.522,0.631-4.809,1.544-6.861
				c0.911-2.05,2.084-3.806,3.517-5.312c1.433-1.506,3.052-2.727,4.86-3.709c1.808-0.983,3.662-1.66,5.563-2.048
				c0.846-0.172,1.717-0.319,2.614-0.441c0.895-0.121,1.785-0.194,2.668-0.214C122.254,30.577,122.445,30.574,122.634,30.574
				 M122.634,27.844c-0.211,0-0.423,0.003-0.637,0.008c-0.967,0.022-1.966,0.103-2.967,0.238c-0.95,0.129-1.89,0.287-2.793,0.471
				c-2.173,0.443-4.3,1.225-6.322,2.324c-2.076,1.128-3.938,2.55-5.534,4.226c-1.655,1.739-3.012,3.786-4.034,6.085
				c-1.048,2.357-1.646,4.996-1.776,7.845c-0.097,2.132,0.104,4.107,0.598,5.872c0.531,1.888,1.357,3.482,2.456,4.74
				c0.481,0.551,1.01,1.034,1.586,1.446c-1.041-0.355-2.035-0.744-2.627-1.043c-0.388-0.196-0.81-0.294-1.232-0.294
				c-0.439,0-0.878,0.106-1.277,0.317c-0.783,0.415-1.316,1.183-1.43,2.062c-0.349,2.69-0.546,4.965-0.736,7.164
				c-0.199,2.292-0.386,4.457-0.729,6.861c-0.199,1.393,0.695,2.709,2.063,3.039c0.812,0.196,1.743,0.381,2.767,0.55
				c1.037,0.171,2.137,0.3,3.268,0.383c0.678,0.049,1.729,0.115,3.026,0.115c2.247,0,4.232-0.199,5.9-0.59
				c2.368-0.556,4.661-1.476,7.01-2.811c2.221-1.263,4.184-2.835,5.836-4.673c1.693-1.882,3.064-4.106,4.073-6.609
				c1.013-2.517,1.585-5.368,1.702-8.475c0.072-1.914-0.108-3.67-0.535-5.219c-0.464-1.682-1.209-3.111-2.216-4.249
				c-0.638-0.719-1.372-1.319-2.195-1.793c0.475-0.051,0.933-0.226,1.326-0.515c0.611-0.449,1.007-1.133,1.094-1.886
				c0.597-5.172,0.874-7.544,1.423-11.967c0.163-1.316-0.643-2.559-1.911-2.947c-0.915-0.28-1.894-0.471-2.91-0.568
				C124.169,27.88,123.406,27.844,122.634,27.844L122.634,27.844z"/>
		</g>
		<g>
			<path d="M53.332,90.734c-1.047,0-2.08-0.092-3.069-0.275c-2.49-0.458-4.698-1.412-6.561-2.833
				c-1.881-1.434-3.386-3.328-4.471-5.627c-1.084-2.297-1.635-4.929-1.636-7.824c0-3.728,0.562-7.378,1.669-10.85
				c1.112-3.487,2.769-6.674,4.925-9.472c2.147-2.787,4.829-5.138,7.973-6.987c3.098-1.823,6.678-3.014,10.642-3.541
				c1.314-0.174,2.672-0.263,4.036-0.263l0.485,0.003c1.597,0.024,3.098,0.271,4.46,0.734c0.626,0.213,1.01,0.844,0.91,1.498
				c-0.764,5.013-1.145,7.538-1.905,12.609c-0.101,0.674-0.681,1.162-1.348,1.163c-0.05,0-0.099-0.003-0.148-0.008
				c-0.32-0.035-0.641-0.052-0.962-0.052c-0.182,0-0.364,0.006-0.546,0.017c-0.536,0.033-1.08,0.094-1.618,0.182
				c-1.378,0.224-2.713,0.624-3.969,1.187c-1.241,0.557-2.355,1.285-3.311,2.164c-0.944,0.869-1.711,1.9-2.277,3.066
				c-0.555,1.139-0.844,2.442-0.858,3.876c-0.009,0.837,0.11,1.522,0.354,2.036c0.221,0.466,0.518,0.81,0.906,1.052
				c0.424,0.264,0.952,0.424,1.57,0.478c0.183,0.016,0.37,0.023,0.562,0.023c0.552,0,1.157-0.065,1.8-0.194
				c0.669-0.134,1.378-0.348,2.108-0.637c0.764-0.3,1.525-0.648,2.267-1.035c0.747-0.389,1.483-0.815,2.191-1.269
				c0.711-0.455,1.372-0.912,1.964-1.357c0.242-0.182,0.531-0.274,0.821-0.274c0.23,0,0.462,0.058,0.671,0.176
				c0.473,0.267,0.742,0.788,0.687,1.328c-0.577,5.614-0.865,8.431-1.439,14.07c-0.039,0.388-0.242,0.74-0.559,0.969
				c-0.814,0.588-1.713,1.157-2.671,1.691c-0.936,0.523-1.914,1.022-2.906,1.482c-1.001,0.464-2.018,0.88-3.023,1.237
				c-1.018,0.361-2.008,0.655-2.944,0.875C56.464,90.538,54.856,90.734,53.332,90.734z"/>
			<path d="M66.844,44.426c0.153,0,0.307,0.001,0.461,0.003c1.465,0.022,2.811,0.244,4.041,0.662
				c-0.764,5.015-1.145,7.539-1.906,12.612c-0.37-0.04-0.74-0.06-1.112-0.06c-0.209,0-0.418,0.006-0.628,0.019
				c-0.583,0.036-1.166,0.101-1.752,0.197c-1.496,0.244-2.933,0.672-4.308,1.289c-1.375,0.617-2.603,1.418-3.675,2.405
				c-1.073,0.987-1.936,2.146-2.581,3.473c-0.647,1.328-0.979,2.817-0.996,4.459c-0.011,1.054,0.152,1.934,0.486,2.636
				c0.333,0.701,0.807,1.244,1.419,1.625c0.612,0.381,1.337,0.607,2.174,0.679c0.22,0.019,0.446,0.028,0.677,0.028
				c0.647,0,1.338-0.074,2.071-0.221c0.751-0.151,1.533-0.386,2.342-0.706c0.81-0.319,1.608-0.684,2.395-1.094
				c0.787-0.409,1.553-0.853,2.297-1.329c0.744-0.476,1.427-0.948,2.049-1.417c-0.577,5.615-0.865,8.431-1.439,14.072
				c-0.78,0.562-1.625,1.098-2.537,1.606c-0.911,0.509-1.85,0.988-2.816,1.435c-0.966,0.448-1.935,0.845-2.906,1.19
				c-0.971,0.345-1.904,0.623-2.8,0.833c-1.543,0.362-3.033,0.546-4.467,0.546c-0.966,0-1.907-0.083-2.823-0.252
				c-2.276-0.419-4.273-1.273-5.98-2.576c-1.707-1.302-3.067-3.012-4.064-5.125c-0.997-2.113-1.504-4.535-1.505-7.242
				c0-3.589,0.534-7.08,1.604-10.435c1.07-3.355,2.645-6.38,4.705-9.054c2.061-2.674,4.6-4.888,7.584-6.643
				c2.983-1.755,6.374-2.865,10.129-3.364C64.251,44.509,65.538,44.426,66.844,44.426 M70.298,69.687h0.005 M66.844,41.697
				c-1.426,0-2.846,0.093-4.22,0.275c-4.145,0.55-7.898,1.801-11.155,3.718c-3.294,1.938-6.107,4.404-8.362,7.33
				c-2.252,2.922-3.983,6.25-5.144,9.891c-1.15,3.606-1.733,7.396-1.733,11.264c0,3.097,0.594,5.925,1.766,8.407
				c1.179,2.499,2.82,4.561,4.877,6.13c2.034,1.552,4.437,2.592,7.141,3.09c1.07,0.198,2.187,0.298,3.317,0.298
				c1.629,0,3.341-0.208,5.091-0.619c0.985-0.231,2.024-0.54,3.089-0.918c1.045-0.371,2.102-0.803,3.142-1.286
				c1.022-0.473,2.031-0.988,2.999-1.529c0.998-0.556,1.942-1.154,2.803-1.775c0.633-0.456,1.04-1.162,1.119-1.938
				c0.569-5.598,0.857-8.414,1.426-13.946c0.019-0.131,0.029-0.265,0.029-0.402c0-1.506-1.217-2.727-2.722-2.73
				c-0.003,0-0.006,0-0.01,0c-0.016,0-0.032,0-0.048,0c-0.608,0.01-1.167,0.219-1.616,0.565c-0.557,0.419-1.181,0.85-1.856,1.281
				c-0.675,0.432-1.376,0.838-2.086,1.208c-0.702,0.366-1.42,0.694-2.135,0.976c-0.657,0.259-1.289,0.45-1.879,0.569
				c-0.555,0.111-1.071,0.168-1.534,0.168c-0.151,0-0.299-0.006-0.443-0.018c-0.401-0.035-0.726-0.127-0.965-0.276
				c-0.113-0.07-0.258-0.187-0.397-0.479c-0.086-0.182-0.23-0.61-0.222-1.436c0.013-1.229,0.255-2.336,0.72-3.291
				c0.492-1.012,1.157-1.906,1.975-2.659c0.849-0.781,1.839-1.428,2.944-1.924c1.146-0.514,2.368-0.88,3.631-1.086
				c0.491-0.08,0.989-0.136,1.48-0.166c0.153-0.009,0.307-0.014,0.46-0.014c0.271,0,0.547,0.015,0.819,0.044
				c0.099,0.011,0.198,0.016,0.295,0.016c1.335,0,2.494-0.976,2.697-2.325c0.76-5.07,1.141-7.593,1.905-12.605
				c0.199-1.308-0.568-2.571-1.821-2.996c-1.499-0.509-3.14-0.78-4.877-0.806C67.178,41.698,67.011,41.697,66.844,41.697
				L66.844,41.697z"/>
		</g>
		<g>
			<path d="M82.386,83.539c-1.047,0-2.08-0.092-3.069-0.275c-2.492-0.459-4.699-1.413-6.561-2.833
				c-1.882-1.436-3.386-3.329-4.471-5.627s-1.635-4.931-1.635-7.825c-0.001-3.726,0.561-7.376,1.668-10.85
				c1.113-3.49,2.771-6.677,4.925-9.473c2.147-2.787,4.83-5.137,7.973-6.986c3.099-1.824,6.68-3.015,10.643-3.541
				c1.315-0.175,2.676-0.263,4.044-0.263l0.477,0.003c1.596,0.024,3.096,0.271,4.461,0.734c0.626,0.213,1.01,0.844,0.91,1.498
				c-0.765,5.014-1.146,7.537-1.906,12.609c-0.101,0.674-0.681,1.162-1.348,1.163c-0.05,0-0.099-0.003-0.148-0.008
				c-0.321-0.035-0.644-0.052-0.966-0.052c-0.181,0-0.362,0.005-0.544,0.017c-0.534,0.033-1.078,0.094-1.616,0.182
				c-1.379,0.225-2.714,0.625-3.969,1.188c-1.239,0.556-2.353,1.284-3.31,2.164c-0.945,0.87-1.712,1.901-2.278,3.066
				c-0.555,1.14-0.844,2.443-0.857,3.875c-0.009,0.839,0.11,1.524,0.354,2.037c0.221,0.466,0.518,0.81,0.906,1.05
				c0.426,0.265,0.953,0.426,1.57,0.479c0.182,0.016,0.368,0.023,0.56,0.023c0.554,0,1.16-0.065,1.804-0.194
				c0.669-0.134,1.379-0.349,2.109-0.637c0.757-0.298,1.519-0.646,2.265-1.035c0.749-0.39,1.486-0.816,2.191-1.268
				c0.716-0.458,1.376-0.915,1.964-1.357c0.242-0.182,0.531-0.274,0.821-0.274c0.23,0,0.462,0.058,0.671,0.176
				c0.473,0.267,0.742,0.788,0.687,1.328c-0.577,5.614-0.865,8.43-1.438,14.07c-0.04,0.388-0.244,0.741-0.561,0.969
				c-0.821,0.592-1.721,1.161-2.672,1.691c-0.936,0.523-1.914,1.022-2.906,1.481c-1.003,0.465-2.021,0.881-3.023,1.237
				c-1.018,0.362-2.009,0.656-2.944,0.876C85.518,83.343,83.909,83.539,82.386,83.539z"/>
			<path d="M95.898,37.231c0.153,0,0.307,0.001,0.461,0.003c1.465,0.022,2.811,0.244,4.041,0.662
				c-0.764,5.015-1.145,7.539-1.906,12.612c-0.37-0.04-0.74-0.06-1.112-0.06c-0.209,0-0.418,0.006-0.628,0.019
				c-0.583,0.036-1.166,0.101-1.752,0.197c-1.496,0.244-2.933,0.672-4.308,1.289s-2.603,1.418-3.675,2.405
				c-1.073,0.988-1.936,2.146-2.581,3.473c-0.647,1.328-0.979,2.817-0.996,4.459c-0.011,1.054,0.152,1.934,0.486,2.636
				c0.333,0.701,0.807,1.245,1.419,1.625c0.612,0.381,1.337,0.607,2.174,0.679c0.22,0.019,0.446,0.028,0.677,0.028
				c0.647,0,1.338-0.074,2.071-0.221c0.751-0.151,1.533-0.386,2.342-0.706c0.81-0.319,1.608-0.684,2.395-1.094
				c0.787-0.409,1.553-0.853,2.297-1.329c0.744-0.476,1.427-0.948,2.049-1.417c-0.577,5.615-0.865,8.432-1.439,14.072
				c-0.78,0.562-1.625,1.097-2.537,1.606c-0.911,0.509-1.85,0.988-2.816,1.435c-0.966,0.448-1.935,0.845-2.906,1.19
				c-0.971,0.345-1.904,0.623-2.8,0.833c-1.544,0.362-3.033,0.547-4.467,0.547c-0.966,0-1.906-0.083-2.822-0.252
				c-2.276-0.419-4.273-1.273-5.98-2.576c-1.707-1.302-3.067-3.012-4.064-5.125c-0.997-2.113-1.505-4.535-1.505-7.242
				c0-3.589,0.534-7.08,1.604-10.435c1.07-3.355,2.645-6.38,4.705-9.054c2.061-2.674,4.6-4.888,7.584-6.643
				c2.983-1.755,6.374-2.865,10.129-3.364C93.305,37.314,94.592,37.231,95.898,37.231 M99.352,62.492h0.005 M95.898,34.501
				c-1.426,0-2.846,0.093-4.22,0.275c-4.146,0.55-7.898,1.801-11.155,3.718c-3.294,1.938-6.107,4.404-8.362,7.33
				c-2.252,2.922-3.983,6.25-5.144,9.891c-1.15,3.606-1.733,7.396-1.733,11.264c0,3.097,0.594,5.925,1.766,8.407
				c1.179,2.499,2.82,4.561,4.877,6.13c2.034,1.552,4.437,2.592,7.141,3.09c1.07,0.198,2.186,0.298,3.317,0.298
				c1.629,0,3.342-0.208,5.091-0.619c0.985-0.231,2.024-0.54,3.089-0.918c1.045-0.371,2.102-0.804,3.142-1.286
				c1.021-0.473,2.031-0.988,2.999-1.528c0.997-0.556,1.941-1.154,2.802-1.775c0.633-0.457,1.04-1.162,1.119-1.938
				c0.569-5.598,0.857-8.414,1.426-13.946c0.019-0.131,0.029-0.266,0.029-0.402c0-1.507-1.218-2.728-2.724-2.73
				c-0.003,0-0.005,0-0.008,0c-0.013,0-0.026,0-0.039,0c0,0-0.001,0-0.001,0c0,0,0,0,0,0c-0.61,0.009-1.172,0.218-1.623,0.565
				c-0.556,0.418-1.181,0.849-1.857,1.282c-0.675,0.432-1.376,0.838-2.085,1.207c-0.702,0.366-1.42,0.694-2.135,0.976
				c-0.657,0.26-1.289,0.451-1.879,0.569c-0.555,0.111-1.071,0.168-1.534,0.168c-0.151,0-0.299-0.006-0.443-0.018
				c-0.401-0.035-0.726-0.127-0.965-0.276c-0.113-0.07-0.258-0.187-0.397-0.479c-0.086-0.182-0.23-0.61-0.222-1.437
				c0.013-1.229,0.255-2.336,0.72-3.291c0.492-1.012,1.156-1.906,1.976-2.66c0.848-0.781,1.839-1.428,2.944-1.923
				c1.147-0.514,2.369-0.88,3.631-1.086c0.492-0.08,0.991-0.136,1.48-0.166c0.153-0.009,0.307-0.014,0.46-0.014
				c0.271,0,0.547,0.015,0.819,0.044c0.099,0.011,0.198,0.016,0.295,0.016c1.335,0,2.494-0.976,2.697-2.325
				c0.76-5.07,1.141-7.593,1.905-12.605c0.199-1.308-0.568-2.57-1.821-2.996c-1.499-0.509-3.14-0.781-4.878-0.807
				C96.232,34.503,96.065,34.501,95.898,34.501L95.898,34.501z"/>
		</g>
	</g>
	<g>
		<path class="st1" d="M108.803,74.724c-1.253,0-2.271-0.063-2.927-0.111c-1.099-0.081-2.156-0.205-3.146-0.368
			c-0.992-0.164-1.891-0.342-2.67-0.53c-0.685-0.165-1.131-0.823-1.032-1.52c0.349-2.442,0.538-4.626,0.738-6.938
			c0.189-2.184,0.385-4.442,0.729-7.103c0.057-0.439,0.323-0.824,0.715-1.031c0.199-0.105,0.419-0.158,0.639-0.158
			c0.211,0,0.422,0.049,0.616,0.147c1.46,0.738,5.285,2.045,6.779,2.133c0.322,0.02,0.643,0.029,0.962,0.029
			c1.315,0,2.645-0.166,3.952-0.491c0.31-0.078,0.687-0.187,1.13-0.326c0.368-0.116,0.728-0.279,1.067-0.483
			c0.299-0.181,0.546-0.396,0.756-0.657c0.044-0.055,0.182-0.227,0.198-0.656c0.001-0.018,0.001-0.034,0.001-0.047
			c-0.022-0.012-0.054-0.026-0.097-0.04c-0.171-0.052-0.389-0.08-0.641-0.08c-0.402,0.005-0.759,0.031-1.105,0.078
			c-0.352,0.048-0.681,0.108-0.989,0.182l-0.839,0.203c-0.874,0.21-1.722,0.318-2.519,0.318c-0.787,0-1.546-0.104-2.255-0.31
			c-1.463-0.424-2.713-1.223-3.717-2.374c-0.964-1.102-1.694-2.518-2.169-4.208c-0.455-1.625-0.64-3.456-0.549-5.442
			c0.122-2.678,0.681-5.152,1.66-7.353c0.957-2.153,2.227-4.071,3.774-5.698c1.52-1.595,3.219-2.893,5.198-3.968
			c1.902-1.034,3.902-1.77,5.942-2.186c0.873-0.178,1.782-0.332,2.702-0.456c0.955-0.128,1.903-0.205,2.82-0.226
			c0.2-0.005,0.401-0.007,0.602-0.007c0.729,0,1.447,0.034,2.138,0.099c0.925,0.088,1.812,0.261,2.641,0.515
			c0.634,0.194,1.037,0.815,0.955,1.473c-0.554,4.467-0.842,6.937-1.424,11.979c-0.043,0.377-0.241,0.719-0.547,0.943
			c-0.236,0.174-0.52,0.265-0.809,0.265c-0.085,0-0.17-0.008-0.255-0.024c-1.086-0.206-2.245-0.332-3.444-0.374
			c-0.17-0.006-0.341-0.009-0.512-0.009c-0.988,0-1.971,0.102-2.92,0.302c-0.219,0.046-0.497,0.11-0.839,0.191
			c-0.314,0.076-0.648,0.174-0.999,0.293c-0.346,0.118-0.702,0.263-1.057,0.428c-0.312,0.146-0.594,0.312-0.836,0.496
			c-0.186,0.14-0.331,0.299-0.444,0.485c-0.07,0.116-0.103,0.233-0.103,0.381c0,0.016,0,0.03,0.001,0.043
			c0.063,0.028,0.148,0.051,0.245,0.066c0.171,0.026,0.353,0.039,0.545,0.039c0.162,0,0.332-0.009,0.508-0.026
			c0.463-0.044,0.929-0.113,1.388-0.204c0.482-0.096,0.933-0.194,1.35-0.295c0.412-0.1,0.829-0.173,1.241-0.217
			c0.549-0.059,1.072-0.088,1.556-0.088c1.033,0,1.923,0.128,2.721,0.392c1.314,0.437,2.43,1.166,3.318,2.168
			c0.868,0.981,1.515,2.228,1.922,3.708c0.391,1.415,0.555,3.032,0.487,4.806c-0.111,2.949-0.65,5.646-1.604,8.015
			c-0.949,2.355-2.235,4.444-3.823,6.208c-1.553,1.728-3.401,3.208-5.495,4.398c-2.233,1.271-4.407,2.144-6.647,2.669
			C112.824,74.537,110.944,74.724,108.803,74.724z"/>
		<path d="M125.132,26.411c0.684,0,1.354,0.031,2.009,0.093c0.835,0.08,1.626,0.233,2.371,0.46
			c-0.555,4.472-0.843,6.944-1.425,11.99c-1.157-0.22-2.374-0.353-3.651-0.397c-0.187-0.007-0.374-0.01-0.56-0.01
			c-1.084,0-2.151,0.11-3.202,0.331c-0.225,0.047-0.516,0.115-0.871,0.199c-0.357,0.086-0.731,0.195-1.122,0.328
			c-0.393,0.134-0.791,0.295-1.195,0.483c-0.404,0.188-0.765,0.403-1.084,0.646c-0.32,0.242-0.582,0.53-0.785,0.862
			c-0.203,0.333-0.302,0.697-0.302,1.089c0,0.455,0.127,0.8,0.385,1.025c0.257,0.225,0.597,0.371,1.017,0.436
			c0.237,0.036,0.489,0.055,0.755,0.055c0.204,0,0.417-0.011,0.639-0.032c0.511-0.049,1.017-0.124,1.521-0.224
			c0.503-0.099,0.971-0.202,1.405-0.308c0.434-0.105,0.799-0.158,1.066-0.186c0.478-0.051,0.951-0.08,1.411-0.08
			c0.818,0,1.596,0.093,2.29,0.323c1.085,0.36,1.994,0.952,2.725,1.777c0.73,0.825,1.274,1.881,1.628,3.165
			c0.354,1.284,0.5,2.751,0.439,4.391c-0.106,2.811-0.608,5.325-1.506,7.557c-0.9,2.232-2.088,4.156-3.571,5.805
			c-1.482,1.649-3.2,3.012-5.155,4.125c-1.955,1.112-4.037,1.999-6.285,2.527c-1.751,0.411-3.699,0.518-5.276,0.518
			c-1.304,0-2.353-0.073-2.828-0.107c-1.047-0.076-2.055-0.194-3.022-0.353c-0.967-0.16-1.825-0.331-2.573-0.511
			c0.684-4.795,0.763-8.609,1.47-14.059c1.45,0.733,5.518,2.172,7.315,2.279c0.348,0.021,0.695,0.031,1.041,0.031
			c1.442,0,2.87-0.179,4.283-0.532c0.332-0.083,0.735-0.199,1.209-0.348c0.475-0.149,0.928-0.355,1.363-0.617
			c0.435-0.263,0.806-0.585,1.116-0.971c0.309-0.385,0.475-0.87,0.498-1.456c0.016-0.397-0.075-0.713-0.273-0.946
			c-0.198-0.234-0.46-0.4-0.783-0.5c-0.307-0.094-0.655-0.141-1.043-0.141c-0.022,0-0.044,0-0.066,0
			c-0.416,0.005-0.823,0.035-1.224,0.09c-0.4,0.055-0.775,0.123-1.125,0.207c-0.351,0.084-0.631,0.152-0.84,0.202
			c-0.772,0.186-1.505,0.28-2.2,0.28c-0.66,0-1.285-0.085-1.874-0.255c-1.21-0.35-2.234-1.002-3.069-1.96
			c-0.836-0.957-1.463-2.188-1.883-3.68c-0.418-1.491-0.584-3.172-0.5-5.011c0.115-2.521,0.631-4.809,1.544-6.861
			c0.911-2.05,2.084-3.806,3.517-5.312c1.433-1.505,3.052-2.727,4.86-3.709c1.808-0.983,3.662-1.66,5.563-2.048
			c0.846-0.172,1.717-0.319,2.614-0.441c0.895-0.121,1.785-0.194,2.668-0.214C124.753,26.413,124.943,26.411,125.132,26.411
			 M125.132,23.681c-0.211,0-0.423,0.003-0.637,0.008c-0.967,0.022-1.966,0.103-2.967,0.238c-0.95,0.129-1.89,0.287-2.793,0.471
			c-2.174,0.443-4.301,1.225-6.322,2.324c-2.076,1.128-3.938,2.55-5.533,4.225c-1.655,1.74-3.013,3.787-4.034,6.085
			c-1.048,2.356-1.646,4.996-1.776,7.845c-0.097,2.132,0.104,4.108,0.598,5.872c0.531,1.888,1.357,3.482,2.456,4.74
			c0.481,0.551,1.01,1.034,1.586,1.446c-1.041-0.355-2.035-0.744-2.627-1.043c-0.387-0.196-0.81-0.294-1.232-0.294
			c-0.439,0-0.878,0.106-1.277,0.317c-0.783,0.415-1.316,1.183-1.43,2.062c-0.349,2.691-0.546,4.965-0.736,7.164
			c-0.199,2.292-0.386,4.457-0.729,6.861c-0.199,1.393,0.695,2.709,2.063,3.039c0.812,0.196,1.743,0.381,2.767,0.55
			c1.037,0.171,2.137,0.3,3.268,0.383c0.678,0.049,1.729,0.115,3.026,0.115c2.247,0,4.232-0.199,5.9-0.59
			c2.368-0.556,4.661-1.476,7.01-2.811c2.221-1.263,4.184-2.835,5.836-4.673c1.693-1.882,3.064-4.106,4.073-6.609
			c1.013-2.517,1.585-5.368,1.702-8.475c0.072-1.914-0.108-3.67-0.535-5.219c-0.464-1.682-1.209-3.111-2.216-4.249
			c-0.638-0.719-1.372-1.319-2.195-1.793c0.475-0.051,0.933-0.226,1.326-0.515c0.611-0.449,1.008-1.133,1.094-1.886
			c0.597-5.175,0.874-7.547,1.423-11.967c0.163-1.316-0.643-2.56-1.912-2.947c-0.916-0.28-1.894-0.47-2.909-0.567
			C126.667,23.716,125.904,23.681,125.132,23.681L125.132,23.681z"/>
	</g>
	<g>
		<path class="st2" d="M55.83,86.57c-1.047,0-2.08-0.092-3.069-0.275c-2.49-0.458-4.698-1.412-6.561-2.833
			c-1.881-1.435-3.386-3.329-4.471-5.627c-1.085-2.297-1.635-4.93-1.635-7.825c-0.001-3.726,0.561-7.376,1.668-10.85
			c1.112-3.487,2.769-6.674,4.925-9.472c2.146-2.786,4.829-5.136,7.973-6.987c3.098-1.823,6.678-3.014,10.642-3.541
			c1.314-0.174,2.672-0.263,4.036-0.263l0.485,0.003c1.597,0.024,3.097,0.271,4.461,0.734c0.626,0.213,1.01,0.844,0.91,1.498
			c-0.765,5.014-1.146,7.538-1.906,12.609c-0.101,0.674-0.681,1.162-1.348,1.163c-0.05,0-0.099-0.003-0.148-0.008
			c-0.32-0.035-0.641-0.052-0.962-0.052c-0.182,0-0.364,0.006-0.546,0.017c-0.536,0.033-1.08,0.094-1.618,0.182
			c-1.378,0.224-2.713,0.624-3.969,1.187c-1.239,0.556-2.353,1.284-3.31,2.164c-0.945,0.869-1.712,1.9-2.278,3.066
			c-0.555,1.139-0.844,2.443-0.857,3.875c-0.009,0.839,0.11,1.525,0.354,2.037c0.221,0.466,0.518,0.81,0.906,1.052
			c0.424,0.264,0.952,0.424,1.57,0.478c0.183,0.016,0.369,0.023,0.561,0.023c0.552,0,1.158-0.065,1.803-0.194
			c0.667-0.134,1.377-0.348,2.109-0.637c0.763-0.301,1.524-0.649,2.265-1.035c0.747-0.389,1.483-0.815,2.191-1.269
			c0.711-0.455,1.372-0.912,1.964-1.357c0.242-0.182,0.531-0.274,0.821-0.274c0.23,0,0.462,0.058,0.671,0.176
			c0.473,0.267,0.742,0.788,0.687,1.328c-0.577,5.614-0.865,8.431-1.438,14.07c-0.039,0.388-0.243,0.741-0.56,0.969
			c-0.819,0.591-1.719,1.16-2.672,1.691c-0.929,0.52-1.907,1.019-2.905,1.481c-1.006,0.466-2.022,0.882-3.023,1.237
			c-1.018,0.361-2.008,0.655-2.944,0.875C58.962,86.374,57.354,86.57,55.83,86.57z"/>
		<path d="M69.342,40.263c0.153,0,0.307,0.001,0.461,0.003c1.465,0.022,2.811,0.244,4.041,0.662
			c-0.764,5.015-1.145,7.539-1.906,12.612c-0.37-0.04-0.74-0.06-1.112-0.06c-0.209,0-0.418,0.006-0.628,0.019
			c-0.583,0.036-1.166,0.101-1.752,0.197c-1.496,0.244-2.933,0.672-4.308,1.289c-1.375,0.617-2.603,1.418-3.675,2.405
			c-1.073,0.987-1.936,2.146-2.581,3.473c-0.647,1.328-0.979,2.817-0.996,4.458c-0.011,1.054,0.152,1.935,0.486,2.636
			c0.333,0.701,0.807,1.244,1.419,1.625c0.612,0.381,1.337,0.607,2.174,0.679c0.22,0.019,0.446,0.028,0.677,0.028
			c0.647,0,1.338-0.074,2.071-0.221c0.751-0.151,1.533-0.386,2.342-0.706c0.81-0.319,1.608-0.684,2.395-1.094
			c0.787-0.409,1.553-0.853,2.297-1.329c0.744-0.476,1.427-0.948,2.049-1.417c-0.577,5.615-0.865,8.431-1.439,14.072
			c-0.78,0.562-1.625,1.098-2.537,1.606c-0.911,0.509-1.85,0.988-2.816,1.435c-0.966,0.448-1.935,0.845-2.906,1.19
			c-0.971,0.345-1.904,0.623-2.8,0.833c-1.544,0.362-3.033,0.547-4.467,0.547c-0.966,0-1.907-0.083-2.822-0.252
			c-2.276-0.419-4.273-1.273-5.98-2.576c-1.707-1.302-3.067-3.012-4.064-5.125c-0.997-2.113-1.505-4.535-1.505-7.242
			c0-3.589,0.534-7.08,1.604-10.435c1.07-3.355,2.645-6.38,4.705-9.054c2.061-2.674,4.6-4.888,7.584-6.643
			c2.983-1.755,6.374-2.865,10.129-3.364C66.749,40.346,68.037,40.263,69.342,40.263 M72.796,65.523h0.005 M69.342,37.533
			c-1.426,0-2.846,0.093-4.22,0.275c-4.145,0.55-7.898,1.801-11.154,3.717c-3.294,1.938-6.107,4.404-8.362,7.33
			c-2.252,2.923-3.983,6.25-5.144,9.891c-1.15,3.606-1.733,7.396-1.733,11.264c0,3.097,0.594,5.925,1.766,8.407
			c1.179,2.498,2.82,4.561,4.877,6.13c2.034,1.552,4.437,2.592,7.141,3.09c1.07,0.198,2.187,0.298,3.317,0.298
			c1.629,0,3.342-0.208,5.091-0.619c0.983-0.23,2.023-0.539,3.089-0.918c1.045-0.371,2.102-0.803,3.142-1.286
			c1.023-0.474,2.032-0.988,2.999-1.529c0.997-0.555,1.94-1.153,2.802-1.775c0.633-0.456,1.04-1.162,1.119-1.938
			c0.569-5.598,0.857-8.414,1.426-13.946c0.019-0.131,0.029-0.265,0.029-0.402c0-1.506-1.218-2.728-2.724-2.73
			c-0.003,0-0.005,0-0.008,0c-0.015,0-0.029,0-0.044,0c-0.609,0.01-1.17,0.219-1.62,0.565c-0.555,0.417-1.179,0.848-1.857,1.281
			c-0.674,0.432-1.375,0.838-2.085,1.207c-0.702,0.366-1.42,0.694-2.135,0.976c-0.657,0.259-1.289,0.45-1.879,0.569
			c-0.555,0.111-1.071,0.168-1.534,0.168c-0.151,0-0.299-0.006-0.443-0.018c-0.401-0.035-0.726-0.128-0.965-0.277
			c-0.112-0.07-0.257-0.186-0.396-0.479c-0.086-0.182-0.23-0.61-0.222-1.437c0.013-1.229,0.255-2.336,0.72-3.291
			c0.492-1.012,1.156-1.906,1.975-2.659c0.849-0.781,1.839-1.428,2.944-1.924c1.146-0.514,2.368-0.88,3.631-1.086
			c0.491-0.08,0.989-0.136,1.48-0.166c0.153-0.009,0.307-0.014,0.46-0.014c0.271,0,0.547,0.015,0.819,0.044
			c0.099,0.011,0.198,0.016,0.295,0.016c1.335,0,2.494-0.976,2.697-2.325c0.76-5.07,1.141-7.593,1.905-12.605
			c0.199-1.308-0.568-2.571-1.821-2.996c-1.499-0.509-3.14-0.78-4.877-0.806C69.676,37.534,69.509,37.533,69.342,37.533
			L69.342,37.533z"/>
	</g>
	<g>
		<path class="st2" d="M84.884,79.375c-1.047,0-2.079-0.092-3.069-0.275c-2.49-0.459-4.698-1.412-6.561-2.833
			c-1.881-1.435-3.385-3.328-4.47-5.627s-1.636-4.932-1.636-7.825c-0.001-3.726,0.561-7.376,1.668-10.85
			c1.113-3.49,2.771-6.677,4.925-9.473c2.147-2.787,4.83-5.137,7.973-6.986c3.1-1.824,6.68-3.015,10.643-3.541
			c1.317-0.174,2.678-0.263,4.045-0.263l0.477,0.003c1.595,0.024,3.095,0.271,4.46,0.734c0.626,0.213,1.01,0.844,0.91,1.498
			c-0.764,5.013-1.146,7.537-1.906,12.609c-0.101,0.674-0.681,1.162-1.348,1.163c-0.05,0-0.099-0.003-0.148-0.008
			c-0.321-0.035-0.644-0.052-0.966-0.052c-0.181,0-0.362,0.005-0.544,0.017c-0.534,0.033-1.078,0.094-1.615,0.182
			c-1.379,0.225-2.715,0.625-3.97,1.188c-1.239,0.556-2.353,1.284-3.31,2.164c-0.946,0.871-1.713,1.903-2.278,3.066
			c-0.555,1.139-0.844,2.443-0.857,3.875c-0.009,0.839,0.11,1.524,0.354,2.037c0.221,0.466,0.518,0.81,0.906,1.05
			c0.426,0.265,0.953,0.426,1.57,0.479c0.182,0.016,0.368,0.023,0.56,0.023c0.554,0,1.16-0.065,1.803-0.194
			c0.67-0.134,1.38-0.349,2.11-0.637c0.761-0.3,1.522-0.648,2.264-1.035c0.75-0.391,1.487-0.817,2.192-1.269
			c0.717-0.458,1.377-0.915,1.964-1.357c0.241-0.182,0.531-0.275,0.821-0.275c0.23,0,0.462,0.058,0.671,0.176
			c0.473,0.267,0.742,0.789,0.687,1.329c-0.577,5.614-0.865,8.43-1.438,14.07c-0.04,0.388-0.244,0.741-0.561,0.969
			c-0.82,0.591-1.719,1.16-2.67,1.691c-0.939,0.525-1.918,1.023-2.908,1.482c-0.998,0.463-2.016,0.88-3.023,1.237
			c-1.018,0.362-2.009,0.656-2.944,0.876C88.016,79.179,86.408,79.375,84.884,79.375z"/>
		<path d="M98.396,33.068c0.153,0,0.307,0.001,0.461,0.003c1.465,0.022,2.811,0.244,4.041,0.662
			c-0.764,5.015-1.145,7.54-1.906,12.612c-0.37-0.04-0.74-0.06-1.112-0.06c-0.209,0-0.418,0.006-0.628,0.019
			c-0.583,0.036-1.166,0.101-1.752,0.197c-1.496,0.244-2.933,0.672-4.308,1.289c-1.375,0.617-2.603,1.418-3.675,2.405
			c-1.073,0.987-1.936,2.146-2.581,3.473c-0.647,1.328-0.979,2.817-0.996,4.459c-0.011,1.054,0.152,1.934,0.486,2.636
			c0.333,0.701,0.807,1.244,1.419,1.625c0.612,0.381,1.337,0.607,2.174,0.679c0.22,0.019,0.446,0.028,0.677,0.028
			c0.647,0,1.338-0.074,2.071-0.221c0.751-0.151,1.533-0.386,2.342-0.706c0.81-0.319,1.608-0.684,2.395-1.094
			c0.787-0.409,1.553-0.853,2.297-1.329c0.744-0.476,1.427-0.948,2.049-1.417c-0.577,5.615-0.865,8.431-1.439,14.072
			c-0.78,0.562-1.625,1.098-2.537,1.606c-0.911,0.509-1.85,0.988-2.816,1.435c-0.966,0.448-1.935,0.845-2.906,1.19
			c-0.971,0.345-1.904,0.623-2.8,0.833c-1.543,0.362-3.033,0.546-4.467,0.546c-0.966,0-1.907-0.083-2.823-0.252
			c-2.276-0.419-4.273-1.273-5.98-2.576c-1.707-1.302-3.067-3.012-4.064-5.125c-0.997-2.113-1.505-4.535-1.505-7.242
			c0-3.589,0.534-7.08,1.604-10.435c1.07-3.355,2.644-6.38,4.705-9.054c2.061-2.674,4.6-4.888,7.584-6.643
			c2.983-1.755,6.374-2.865,10.129-3.364C95.803,33.151,97.091,33.068,98.396,33.068 M101.85,58.328h0.005 M98.396,30.338
			c-1.426,0-2.846,0.093-4.22,0.275c-4.146,0.55-7.898,1.801-11.155,3.718c-3.294,1.938-6.107,4.404-8.362,7.33
			c-2.252,2.922-3.983,6.25-5.144,9.891c-1.15,3.606-1.733,7.396-1.733,11.264c0,3.097,0.594,5.925,1.766,8.407
			c1.179,2.499,2.82,4.561,4.877,6.13c2.034,1.552,4.437,2.592,7.142,3.09c1.07,0.197,2.187,0.298,3.317,0.298
			c1.629,0,3.341-0.208,5.091-0.619c0.985-0.231,2.024-0.54,3.089-0.918c1.045-0.371,2.102-0.803,3.142-1.286
			c1.021-0.473,2.031-0.988,2.999-1.528c0.998-0.557,1.942-1.154,2.803-1.776c0.633-0.456,1.04-1.162,1.119-1.938
			c0.569-5.598,0.857-8.414,1.426-13.946c0.019-0.131,0.029-0.265,0.029-0.402c0-1.507-1.218-2.728-2.724-2.73
			c-0.003,0-0.005,0-0.008,0c-0.013,0-0.026,0-0.04,0c0,0-0.001,0-0.001,0c0,0,0,0-0.001,0c-0.61,0.009-1.172,0.218-1.622,0.565
			c-0.557,0.419-1.182,0.85-1.856,1.281c-0.675,0.432-1.376,0.838-2.086,1.208c-0.702,0.366-1.42,0.694-2.135,0.976
			c-0.657,0.26-1.289,0.451-1.879,0.569c-0.555,0.111-1.071,0.168-1.534,0.168c-0.151,0-0.299-0.006-0.443-0.018
			c-0.401-0.035-0.726-0.127-0.965-0.276c-0.113-0.07-0.258-0.187-0.397-0.479c-0.086-0.182-0.23-0.61-0.222-1.437
			c0.012-1.229,0.255-2.336,0.72-3.291c0.492-1.012,1.157-1.906,1.975-2.659c0.849-0.781,1.839-1.428,2.944-1.924
			c1.146-0.514,2.368-0.879,3.631-1.086c0.491-0.08,0.989-0.136,1.48-0.166c0.153-0.009,0.306-0.014,0.46-0.014
			c0.271,0,0.547,0.015,0.819,0.044c0.099,0.011,0.198,0.016,0.295,0.016c1.335,0,2.494-0.976,2.697-2.325
			c0.76-5.07,1.141-7.593,1.905-12.606c0.199-1.308-0.568-2.571-1.821-2.996c-1.499-0.509-3.14-0.78-4.877-0.806
			C98.73,30.339,98.563,30.338,98.396,30.338L98.396,30.338z"/>
	</g>
	<path class="st2" d="M73.844,40.928c-0.764,5.015-1.145,7.539-1.906,12.612c-0.578-0.062-1.157-0.077-1.74-0.041
		c-0.583,0.036-1.166,0.101-1.752,0.197c-1.496,0.244-2.933,0.672-4.308,1.289c-1.375,0.617-2.603,1.418-3.675,2.405
		c-1.073,0.987-1.936,2.146-2.581,3.473c-0.647,1.328-0.979,2.817-0.996,4.459c-0.011,1.054,0.152,1.934,0.486,2.636
		c0.333,0.701,0.807,1.245,1.419,1.625c0.612,0.381,1.337,0.607,2.174,0.679c0.837,0.072,1.753,0.007,2.748-0.193
		c0.751-0.151,1.533-0.386,2.342-0.706c0.81-0.319,1.608-0.684,2.395-1.094c0.787-0.41,1.553-0.853,2.297-1.329
		c0.744-0.476,1.427-0.948,2.049-1.417c-0.577,5.615-0.865,8.431-1.439,14.072c-0.78,0.562-1.625,1.097-2.537,1.606
		c-0.911,0.509-1.85,0.988-2.816,1.435c-0.966,0.448-1.935,0.845-2.906,1.19c-0.971,0.345-1.904,0.623-2.8,0.833
		c-2.583,0.606-5.014,0.714-7.29,0.294c-2.276-0.419-4.273-1.273-5.98-2.576c-1.707-1.302-3.067-3.012-4.064-5.125
		c-0.997-2.113-1.504-4.535-1.505-7.242c0-3.589,0.534-7.08,1.604-10.435c1.07-3.355,2.644-6.38,4.705-9.054
		c2.061-2.674,4.6-4.888,7.584-6.643c2.983-1.755,6.374-2.865,10.129-3.364c1.416-0.188,2.857-0.269,4.321-0.248
		C71.268,40.288,72.614,40.51,73.844,40.928z"/>
	<path class="st2" d="M102.898,33.733c-0.764,5.015-1.145,7.539-1.906,12.612c-0.578-0.062-1.157-0.077-1.74-0.041
		c-0.583,0.036-1.166,0.101-1.752,0.197c-1.496,0.244-2.933,0.672-4.308,1.289s-2.603,1.418-3.675,2.405
		c-1.073,0.987-1.936,2.146-2.581,3.473c-0.647,1.328-0.979,2.817-0.996,4.459c-0.011,1.054,0.152,1.934,0.486,2.636
		c0.333,0.701,0.807,1.245,1.419,1.625c0.612,0.381,1.337,0.607,2.174,0.679c0.837,0.072,1.753,0.007,2.748-0.193
		c0.751-0.151,1.533-0.386,2.342-0.706c0.81-0.319,1.608-0.684,2.395-1.094c0.787-0.41,1.553-0.853,2.297-1.329
		c0.744-0.476,1.427-0.948,2.049-1.417c-0.577,5.615-0.865,8.431-1.439,14.072c-0.78,0.562-1.625,1.097-2.537,1.606
		c-0.911,0.509-1.85,0.988-2.816,1.435c-0.966,0.448-1.935,0.845-2.906,1.19c-0.971,0.345-1.904,0.623-2.8,0.833
		c-2.583,0.606-5.014,0.714-7.29,0.294c-2.276-0.419-4.273-1.273-5.98-2.576c-1.707-1.302-3.067-3.012-4.064-5.125
		c-0.997-2.113-1.504-4.535-1.505-7.242c0-3.589,0.534-7.08,1.604-10.435c1.07-3.355,2.645-6.38,4.705-9.054
		c2.061-2.674,4.6-4.888,7.584-6.643c2.983-1.755,6.374-2.865,10.129-3.364c1.416-0.188,2.857-0.269,4.321-0.248
		C100.322,33.093,101.668,33.315,102.898,33.733z"/>
	<path class="st2" d="M130.595,52.827c-0.106,2.811-0.608,5.325-1.506,7.557c-0.9,2.232-2.088,4.156-3.571,5.805
		c-1.482,1.649-3.2,3.013-5.155,4.124c-1.955,1.112-4.037,1.999-6.285,2.527c-3.199,0.751-7.055,0.487-8.103,0.41
		c-1.047-0.076-2.055-0.194-3.022-0.353c-0.967-0.16-1.825-0.33-2.573-0.511c0.684-4.795,0.763-8.609,1.47-14.059
		c1.45,0.733,5.518,2.172,7.315,2.279c1.797,0.107,3.572-0.064,5.325-0.501c0.332-0.083,0.735-0.199,1.209-0.348
		c0.475-0.149,0.928-0.355,1.363-0.617c0.435-0.263,0.806-0.586,1.116-0.971c0.309-0.385,0.475-0.87,0.498-1.456
		c0.016-0.397-0.075-0.713-0.273-0.946c-0.198-0.234-0.46-0.4-0.783-0.5c-0.325-0.099-0.694-0.146-1.109-0.14
		c-0.416,0.005-0.823,0.035-1.224,0.09c-0.4,0.055-0.775,0.123-1.125,0.207c-0.351,0.085-0.631,0.152-0.84,0.202
		c-1.506,0.363-2.865,0.374-4.074,0.025c-1.21-0.35-2.234-1.002-3.069-1.96c-0.836-0.957-1.463-2.188-1.883-3.68
		c-0.418-1.491-0.584-3.172-0.5-5.011c0.115-2.522,0.631-4.809,1.544-6.861c0.911-2.05,2.084-3.806,3.517-5.312
		c1.433-1.506,3.052-2.727,4.86-3.709c1.808-0.983,3.662-1.66,5.563-2.047c0.846-0.172,1.717-0.319,2.614-0.441
		c0.895-0.121,1.785-0.194,2.668-0.214c0.883-0.021,1.744,0.006,2.579,0.086c0.835,0.08,1.626,0.233,2.371,0.461
		c-0.555,4.472-0.843,6.944-1.425,11.99c-1.157-0.22-2.374-0.353-3.651-0.397c-1.277-0.044-2.531,0.062-3.762,0.322
		c-0.225,0.047-0.516,0.114-0.871,0.199c-0.357,0.086-0.731,0.196-1.122,0.328c-0.393,0.134-0.791,0.295-1.195,0.483
		c-0.404,0.188-0.765,0.403-1.084,0.645c-0.32,0.242-0.582,0.53-0.785,0.862c-0.203,0.333-0.302,0.697-0.302,1.089
		c0,0.455,0.127,0.8,0.385,1.025c0.257,0.225,0.597,0.371,1.017,0.436c0.419,0.065,0.883,0.072,1.394,0.022
		c0.511-0.049,1.017-0.124,1.521-0.224c0.503-0.099,0.971-0.202,1.405-0.308c0.434-0.105,0.799-0.158,1.066-0.186
		c1.328-0.142,2.616-0.117,3.701,0.243c1.085,0.36,1.994,0.952,2.725,1.777c0.73,0.825,1.274,1.881,1.628,3.165
		C130.511,49.72,130.657,51.187,130.595,52.827z"/>
</g>
</svg>